<svg version="1.1" id="pb" xmlns="http://www.w3.org/2000/svg" xmlns:xlink="http://www.w3.org/1999/xlink" x="0px" y="0px"
   viewBox="0 0 2779.5 1554.2" style="enable-background:new 0 0 2779.5 1554.2;position:absolute;" xml:space="preserve">
  <path style="fill:#FBDDC9;" d="M448.3,180.5c-5.3,11.2-17.1,22.3-27.2,16.4c-7.1-4.9-14-2.8-22.1-5.7c-1-1-3-2-3-4
    c1.8-18,25.8-17.3,37.7-24.4c-8,3.1-17-0.8-25,4.3c5.8-13.1,19.9-6.2,29.9-5.4c-10.9,8.1-29.9,11.4-30.7,27.4c-1,3,4,3,5,1.9
    c4.9-7.1,15.7-24.2,21.8-13.3c3.1,5-15.9,12.2-6.8,16.1c7,2.9,15.9-7.2,19.8-15.2c-2-1-4-2-5.1-4.9c0-2-1-4-0.1-6c2-3,7-3.1,9-0.1
    c1,3-0.9,7-2.2,10.5C449.1,178.9,448.7,179.7,448.3,180.5z M431.9,176c-5,2.8-6.5,7.6-8.8,12.1c4.5-2.5,12.2-6.9,11.7-13.1
    C434.1,174.8,433.2,175.2,431.9,176z"/>
  <path data-delay="15" style="fill:#FBDDC9;" d="M481.2,190.3c-8.1,6-24.2-3.8-26.1,9.3c-1.9,8,10.1,6.9,16,3.8c-5.9,5.1-14.9,5.2-22,3.3
    c-4-1-7.1-5.9-6.1-9.9c4.9-12.1,17.8-20.2,30.8-20.4c3-1,7-1.1,10-0.1c2,1,3,2,4,4c0,1,0,3,0,4.9
    C486.6,187.4,484.4,189.1,481.2,190.3z M475.7,178.7c-6.4,2-11.4,7.5-16,12c8.5,0.5,20.2-2.9,21.9-12.8
    C480.3,177.4,478.3,177.7,475.7,178.7z"/>
  <path data-delay="15" style="fill:#FBDDC9;" d="M483.1,213.6c0,1.4-0.5,2.2,0.4,2.7c4.5,0,6.4-5.8,10.9-5.8c-4.7,6.6-18.6,12-18.4,3.2
    c-0.4-15.7,21.7-24,32.4-37.8c1.4-2.7-3.9-3.1-2.5-5.8c4.8,3.6,10.6,3.2,16.4,5.1c-12.5,12.7-25.3,24.2-38,36.9
    C483.8,212.7,483.4,213.2,483.1,213.6z"/>
  <path data-delay="15" style="fill:#FBDDC9;" d="M524.5,202.6c-9,4.3-19.5,11.2-18.5,21.9c0.7,7.1,8.8,2.5,14.2,3.1c-8.7,5.5-24.1,2.9-24.3-7.3
    c0.4-13.3,14.1-22,26.6-22.2c5.3,0.6,12.4,2.2,14.9,8.1c0.8,2.7-0.2,6.7-3.4,8.4c-1.8,1.3-4.5,2.1-7.2,0.7c-1.8-1-2.6-3.7-1.1-6.3
    c2.3-2.2,5.1-5.2,8.6-3.3c-0.4-1.4-0.8-2.7-1.9-2.8C530.3,201.6,527.7,201.5,524.5,202.6z"/>
  <path data-delay="15" style="fill:#FBDDC9;" d="M535.4,220c10.8-9.1,29.5-5.8,30.8,8.6c-0.5,13.6-16.4,22.8-29.5,20c-4-2-9-3.9-11.6-9.2
    c-1.2-4.1-0.7-7.2,1.8-10C529,225.9,531.8,222.8,535.4,220z M551.8,220.5c-8.3,6-24.4,18.9-18.3,22.2c9.1,6.1,20-9.6,26.6-19.7
    c0.5-0.9-0.8-2.7-1-3.6C557.6,218.4,555.2,218.8,551.8,220.5z"/>
  <path data-delay="15" style="fill:#FBDDC9;" d="M595.2,291.4c-1.5,2.7-4.1,3.4-6.8,2.6c-1.5-1.1-4.3-1.9-5.2-3.9c-4.2-13.3,15.3-18.7,22-28.2
    c-11.5-6.7-22.8,10.9-31.1,17.8c-1.3-3.4-6.2-4.3-7.6-7.7c9.1-6.3,16.4-15.2,25.3-23c-10.6-6.8-22.1,11.5-32,17.4
    c-1.8,1.3-3.9-4.9-6.9-5.5c8-8.3,19.3-14.5,23.1-25.3c1.1-4.1-5.5,3.8-9.4,2.7c2.3-2.2,4.2-3.4,7.3-5.1c6.4-3.3,12.4,3.9,10.2,9.8
    c-1.5,2.7-5.2,5.2-7.5,7.4c6.5-5.6,22.2-11.6,22.1,2c0.2,5.2-4.8,8.2-8.4,10.7c6.1-4.7,16.3-9.2,21.7-1.5c0.2,1.5,1.2,3.5,0.1,5.3
    c-6,10.1-17.7,13.3-21.8,22.1c-2.2,7.5,4.9-2.9,9.1-1L595.2,291.4z"/>
  <path data-delay="15" style="fill:#FBDDC9;" d="M628.2,300c-9.9-2.4-28-6.2-20.8,10.7c1,2,7,0.9,10,2.9c-9.9,5.1-22-3.7-20.2-14.8
    c1.9-7,5.9-12.1,11.8-16.1c6-3.1,12.9-5.2,20-2.2c3,2,6.1,4.9,7.1,8.9c0,2-1,4-1.4,6.2C633.1,298.1,631,299.6,628.2,300z
     M626.9,284.2c-6.4,1-11.2,5.4-15.3,10.4c6.2,2.2,18,0.5,20-9.6C630.8,284,629.2,283.7,626.9,284.2z"/>
</svg>